<?xml version="1.0" standalone="no"?>
<!DOCTYPE svg PUBLIC "-//W3C//DTD SVG 20010904//EN"
 "http://www.w3.org/TR/2001/REC-SVG-20010904/DTD/svg10.dtd">
<svg version="1.0" xmlns="http://www.w3.org/2000/svg"
 width="512.000000pt" height="512.000000pt" viewBox="0 0 512.000000 512.000000"
 preserveAspectRatio="xMidYMid meet">

<g transform="translate(0.000000,512.000000) scale(0.100000,-0.100000)"
fill="#000000" stroke="none">
<path d="M2745 4601 c-34 -21 -1492 -1478 -1485 -1484 3 -2 39 -11 80 -20 41
-10 115 -34 164 -53 l89 -36 613 613 614 614 1022 -1022 c574 -573 1035 -1027
1051 -1032 46 -18 116 -13 153 9 36 23 74 91 74 133 0 14 -5 38 -10 54 -6 15
-258 275 -560 578 l-550 550 0 376 c0 373 0 376 -22 409 -38 55 -73 75 -133
75 -60 0 -95 -20 -132 -75 -22 -32 -23 -42 -23 -246 0 -118 -3 -214 -8 -214
-4 0 -178 171 -387 381 -209 209 -392 387 -407 395 -38 20 -107 18 -143 -5z"/>
<path d="M2784 3980 c-18 -4 -45 -16 -60 -28 -38 -27 -1019 -1010 -1014 -1015
3 -2 37 -27 77 -56 145 -106 285 -275 376 -456 156 -312 169 -692 34 -1021
l-25 -62 153 -152 152 -152 20 29 c57 79 57 79 63 493 5 364 6 387 26 431 42
90 124 154 214 166 90 12 198 -56 247 -155 l28 -57 5 -380 5 -380 32 -67 c55
-118 154 -194 283 -218 70 -13 880 -13 950 0 158 30 276 144 309 298 15 73 15
916 0 980 -11 44 -58 94 -868 905 -471 472 -869 866 -886 876 -37 23 -81 30
-121 21z"/>
<path d="M831 2890 c-245 -54 -447 -177 -600 -366 -286 -353 -306 -838 -52
-1224 89 -136 266 -287 421 -359 267 -124 595 -124 857 -1 l87 41 221 -219
c121 -120 233 -227 249 -236 36 -23 129 -31 182 -17 52 14 122 74 145 125 25
54 25 148 0 201 -12 25 -100 120 -234 254 l-215 214 26 41 c107 170 163 416
142 628 -14 137 -41 233 -99 353 -137 280 -385 481 -686 556 -122 31 -324 35
-444 9z m424 -334 c509 -173 659 -804 281 -1182 -117 -116 -250 -182 -413
-205 -142 -20 -307 13 -438 85 -102 57 -230 188 -282 291 -66 130 -78 180 -77
335 0 119 4 145 27 215 78 238 261 408 508 475 109 30 283 23 394 -14z"/>
</g>
</svg>
